<?xml version="1.0" encoding="utf-8"?>
<!-- Generator: Adobe Illustrator 26.2.0, SVG Export Plug-In . SVG Version: 6.00 Build 0)  -->
<svg version="1.1" id="Livello_1" xmlns="http://www.w3.org/2000/svg" xmlns:xlink="http://www.w3.org/1999/xlink" x="0px" y="0px"
	 viewBox="0 0 240 180" style="enable-background:new 0 0 240 180;" xml:space="preserve">
<style type="text/css">
	.st0{fill:#F4F7FA;}
	
		.st1{clip-path:url(#SVGID_00000085210927833096927530000009592426643669266106_);fill:url(#SVGID_00000126287096263047295870000016133357452204166325_);}
	.st2{opacity:0.5;clip-path:url(#SVGID_00000176002352220706897250000005368150404295734422_);}
	.st3{fill:#BEB8F2;}
	.st4{fill:url(#SVGID_00000176752171900111997000000010293655710746226827_);}
	.st5{opacity:0.5;clip-path:url(#SVGID_00000140014219694998650790000005498144684379613869_);}
	.st6{fill:#FCFDFE;}
	.st7{fill:url(#SVGID_00000096767901438599474390000002749349119218169780_);}
	.st8{opacity:0.5;clip-path:url(#SVGID_00000046300640391846914210000008407370137521055376_);}
	.st9{clip-path:url(#SVGID_00000026874191285844541730000008146028931932852917_);}
	.st10{fill:url(#SVGID_00000072968982416780453310000004261618676673204395_);}
	.st11{opacity:0.4;}
	.st12{fill:#FFFFFF;}
	
		.st13{opacity:0.3;clip-path:url(#SVGID_00000039130291580293297620000008828034991373645980_);fill:url(#SVGID_00000031180007195389067720000005045447023911341490_);enable-background:new    ;}
	.st14{fill:url(#SVGID_00000121274668909395132000000002303894197367242635_);}
	.st15{fill:url(#SVGID_00000078757177462606985390000015915369261741127317_);}
	.st16{fill:url(#SVGID_00000031200660804880065750000007116441867836888758_);}
	.st17{fill:url(#SVGID_00000037683884393543211210000017197456898265273990_);}
	.st18{fill:url(#SVGID_00000142174236739270806390000005733840533324422581_);}
	.st19{fill:url(#SVGID_00000098942977325649285050000014201215685065670553_);}
	.st20{fill:url(#SVGID_00000149373919525873765760000008048366709748864678_);}
	.st21{fill:url(#SVGID_00000053517580273939324560000000234755625165799839_);}
	.st22{opacity:0.3;fill:url(#SVGID_00000060731628379142280240000000318814465635683498_);enable-background:new    ;}
	.st23{fill:url(#SVGID_00000031197545844093665770000009355089677159559845_);}
	.st24{fill:url(#SVGID_00000137839885514975135660000006135194351131536316_);}
	.st25{fill:url(#SVGID_00000132796893379114149570000004984394869764644481_);}
	.st26{fill:url(#SVGID_00000047024889764538749290000010515003770580131494_);}
	.st27{fill:#C1CAD4;}
	.st28{fill:url(#SVGID_00000005952426061550779810000012700653117170858118_);}
	.st29{fill:url(#SVGID_00000178893758335366492320000006966833472300649899_);}
	.st30{fill:url(#SVGID_00000039122645398482557590000008319893640665551010_);}
	.st31{opacity:0.3;fill:#FFFFFF;enable-background:new    ;}
	.st32{opacity:0.3;fill:url(#SVGID_00000019680210815290199690000007585256360047965622_);enable-background:new    ;}
</style>
<g>
	<path class="st0" d="M163.1,17.7c5.7,8-0.8,21.2,7.7,27.2c8.2,5.8,18.2-4,25.9,1c11.5,7.5,9.8,42.1-6.7,63.8
		c-5,6.5-9.1,9.1-10.9,16.4c-3.8,15.8,10.3,25,7.7,32.8c-5.8,17.6-98.1,33.2-135.8-19c-17.6-24.4-20.5-59.9-5.4-87
		C73.2,4,150.2-0.4,163.1,17.7z"/>
	<g>
		<g>
			<g>
				<defs>
					<path id="SVGID_1_" d="M82.9,98.2l16.6,5.2c0,0,5.8-7.5,3.6-14.8c-4.4-14.8,8.9-17.7,14.3-19.7c8.1-3,14-9.3,5.4-15.5
						s5.8-18.1,19.6-21.1c13.6-3,16.1-28.8-13.8-25.1c-17.9,2.2-20.7,19.5-24.2,28c-3.5,8.4-16.6,5.1-15.5,17
						c0.9,10.2,6,19.1-1.4,23.6C80.1,80.3,77.3,87.1,82.9,98.2z"/>
				</defs>
				<clipPath id="SVGID_00000036252516723362088870000005989312046571209603_">
					<use xlink:href="#SVGID_1_"  style="overflow:visible;"/>
				</clipPath>
				
					<linearGradient id="SVGID_00000103983622281075144840000007041155453129421699_" gradientUnits="userSpaceOnUse" x1="136.9218" y1="-962.8177" x2="102.3478" y2="-1061.0809" gradientTransform="matrix(0.9534 0.3014 0.3014 -0.9534 302.3187 -948.1774)">
					<stop  offset="0" style="stop-color:#FFC444"/>
					<stop  offset="0.9964" style="stop-color:#F36F56"/>
				</linearGradient>
				
					<path style="clip-path:url(#SVGID_00000036252516723362088870000005989312046571209603_);fill:url(#SVGID_00000103983622281075144840000007041155453129421699_);" d="
					M82.9,98.2l16.6,5.2c0,0,5.8-7.5,3.6-14.8c-4.4-14.8,8.9-17.7,14.3-19.7c8.1-3,13.1-8.7,6.6-15.5c-7.3-7.7,4.6-18.1,18.4-21.1
					c13.6-3,16.1-28.8-13.8-25.1c-17.9,2.2-20.7,19.5-24.2,28c-3.5,8.4-16.6,5.1-15.5,17c0.9,10.2,6,19.1-1.4,23.6
					C80.1,80.3,77.3,87.1,82.9,98.2z"/>
			</g>
			<g>
				<defs>
					<path id="SVGID_00000177480928641853550870000012030595217618058129_" d="M82.9,98.2l16.6,5.2c0,0,5.8-7.5,3.6-14.8
						c-4.4-14.8,8.9-17.7,14.3-19.7c8.1-3,14-9.3,5.4-15.5s5.8-18.1,19.6-21.1c13.6-3,16.1-28.8-13.8-25.1
						c-17.9,2.2-20.7,19.5-24.2,28c-3.5,8.4-16.6,5.1-15.5,17c0.9,10.2,6,19.1-1.4,23.6C80.1,80.3,77.3,87.1,82.9,98.2z"/>
				</defs>
				<clipPath id="SVGID_00000171715655410409169990000017589416871394568638_">
					<use xlink:href="#SVGID_00000177480928641853550870000012030595217618058129_"  style="overflow:visible;"/>
				</clipPath>
				<g style="opacity:0.5;clip-path:url(#SVGID_00000171715655410409169990000017589416871394568638_);">
					<path class="st3" d="M89.6,102H90c0-0.2,2.9-22.8,12.6-44.3c8.9-19.8,25.4-42.7,53.9-39.4v-0.4c-12.7-1.4-24.1,2.1-33.9,10.5
						c-7.8,6.7-14.7,16.5-20.4,29.2C92.5,79.1,89.6,101.7,89.6,102z"/>
					<path class="st3" d="M118.6,32.1l0.4,0.1c2.2-12,11.8-27,11.9-27.2l-0.3-0.2C130.5,5,120.8,20,118.6,32.1z"/>
					<path class="st3" d="M125.3,26.7c14.1-3.6,24,3.4,24.1,3.5l0.2-0.3c-0.1-0.1-10.1-7.2-24.4-3.5L125.3,26.7z"/>
					<path class="st3" d="M97,72.1c9.1-15.2,32.8-12.2,33-12.2l0.1-0.4c-0.2-0.1-24.3-3.1-33.5,12.3L97,72.1z"/>
					<path class="st3" d="M99.1,65.1h0.4c1.1-11.3-8-22.2-8.1-22.3L91.1,43C91.1,43.2,100.2,54,99.1,65.1z"/>
					<path class="st3" d="M90.5,98.5c2.5-6.3,13.3-8.4,13.4-8.5l-0.1-0.4c-0.5,0.1-11.1,2.2-13.7,8.7L90.5,98.5z"/>
					<path class="st3" d="M91.1,93.1l0.4,0.1c0.7-5.3-5.1-13.3-7-15.9c-0.3-0.4-0.5-0.7-0.5-0.8l-0.3,0.1c0,0.1,0.2,0.3,0.6,0.8
						C86.1,80.1,91.8,88,91.1,93.1z"/>
				</g>
			</g>
		</g>
		<g>
			
				<linearGradient id="SVGID_00000129914051063889029470000016831925260829475984_" gradientUnits="userSpaceOnUse" x1="723.6064" y1="791.6786" x2="764.1364" y2="685.1829" gradientTransform="matrix(-0.9004 0.435 -0.435 -0.9004 1048.9006 411.0777)">
				<stop  offset="0" style="stop-color:#FFC444"/>
				<stop  offset="0.9964" style="stop-color:#F36F56"/>
			</linearGradient>
			<path style="fill:url(#SVGID_00000129914051063889029470000016831925260829475984_);" d="M73.6,92.7c3.6,2.4,4,6.6,3.8,9.7
				c-0.4,0.2-0.5,0.4-0.8,0.7c-2.9,2.6-4.7,3.1-8,5.2c-0.7,0.5-3.2,1.1-4.2,1.4l-1.9,0.4c0,0-7.6-6.5-4.4-11.3
				c3.2-4.7-3.3-11.9-6.2-16.1c-1.8-2.6-1.8-4.3-2.3-5.4C44.1,66.1,39.1,64.8,39.5,60c0.5-5.2,6.8-5,7.7-10.7
				c1-6.4-6.5-10.9-4.2-16.7c0.4-1,0.8-2,1.8-3c2.5-2.5,5.8-2.2,6.6-5.8c1.5-7.3,7.5-12.9,14.6-10.2c7,2.7,7.8,15.3-0.1,30.1
				C61.3,55,62.4,57,65.8,61.5c2.4,3.1,11.1,10,8.2,16.3C71.1,84.1,69.5,90,73.6,92.7z"/>
			<g>
				<g>
					<defs>
						<path id="SVGID_00000176012854715553380280000012256833028625476514_" d="M76.8,106.4l-14,3.8c0,0-8.1-6.7-4.9-11.4
							c3.2-4.7-3.3-11.9-6.2-16.1c-8-11.4,6.7-18.1-2.3-33.6c-2.4-4-8.5-11.1-6.6-16.4c2.1-6.1,7.4-4.2,8.4-8.8
							c1.5-7.3,7.5-12.9,14.6-10.2c7,2.7,7.8,15.3-0.1,30.1C61.3,55,62.4,57,65.8,61.5c2.4,3.1,11.1,10,8.2,16.3
							c-3,6.3-4.6,12.2-0.4,14.9C80,96.9,76.8,106.4,76.8,106.4z"/>
					</defs>
					<clipPath id="SVGID_00000137833812660636427210000018415250827155814067_">
						<use xlink:href="#SVGID_00000176012854715553380280000012256833028625476514_"  style="overflow:visible;"/>
					</clipPath>
					<g style="opacity:0.5;clip-path:url(#SVGID_00000137833812660636427210000018415250827155814067_);">
						<path class="st6" d="M70.4,107.5l-0.3,0.1c-0.6-1.5-1.2-2.9-1.8-4.4c-4.2-10.8-7.1-21.7-8.8-32.3c-1.4-9-1.8-17.9-1.3-26.4
							c0.4-6.9,1.4-13.6,3-20c1.1-4.5,2.5-8.7,4.1-12.7c0.3-0.7,0.6-1.4,0.9-2c0.4-0.9,0.9-1.8,1.2-2.7l0.3,0.1
							c-0.3,0.9-0.8,1.8-1.2,2.7c-0.3,0.7-0.6,1.3-0.9,2c-1.6,3.9-3,8.1-4.1,12.6c-1.6,6.4-2.6,13.1-3,19.9
							C58,53,58.4,61.8,59.8,70.8c1.6,10.6,4.6,21.4,8.7,32.2C69.2,104.6,69.8,106,70.4,107.5z"/>
						<path class="st6" d="M58.4,55h-0.3c-0.7-11.5-14.4-25.8-14.5-25.9l0.2-0.2C44,29,57.7,43.4,58.4,55z"/>
						<path class="st6" d="M63.2,86.7L63,86.8c-1.4-7.7,8.8-19.8,8.9-20l0.2,0.2C72,67.1,61.8,79.1,63.2,86.7z"/>
						<path class="st6" d="M64.4,91l-0.3,0.1c-1.9-4.7-7.2-10.2-14.9-15.3c-0.4-0.3-0.4-0.3-0.4-0.3l0.3-0.1L49,75.5l0.1-0.1
							c0,0,0.2,0.1,0.3,0.2C57.2,80.8,62.6,86.2,64.4,91z"/>
						<path class="st6" d="M69.3,104.8H69c-0.3-5.6,6.3-11.6,6.3-11.6l0.2,0.2C75.5,93.5,69,99.3,69.3,104.8z"/>
						<path class="st6" d="M70,107.7c-3.2-3.3-7.5-5.8-13.3-7.7l0.1-0.3c5.8,1.9,10.2,4.4,13.4,7.7L70,107.7z"/>
						<path class="st6" d="M60.7,28.4h-0.3c0-6.4-1.6-13.1-2.1-15.3c-0.1-0.5-0.2-0.7-0.2-0.8h0.3c0,0.1,0.1,0.4,0.2,0.7
							C59.1,15.2,60.7,21.9,60.7,28.4z"/>
						<path class="st6" d="M59,38.8l-0.3-0.1c1.9-5.8,13.2-11.9,13.7-12.1l0.1,0.2C72.5,26.9,60.9,33.1,59,38.8z"/>
					</g>
				</g>
			</g>
		</g>
		<g>
			
				<linearGradient id="SVGID_00000110441310105113408410000000113715542580870814_" gradientUnits="userSpaceOnUse" x1="1965.1289" y1="489.1233" x2="1996.1348" y2="423.8186" gradientTransform="matrix(-0.9279 0.3728 -0.3728 -0.9279 2088.1077 -239.7491)">
				<stop  offset="0" style="stop-color:#FF9085"/>
				<stop  offset="1" style="stop-color:#FB6FBB"/>
			</linearGradient>
			<path style="fill:url(#SVGID_00000110441310105113408410000000113715542580870814_);" d="M91.4,123.2c-1,0.3-1.9-5-7.2-10
				c-1.3-1.3-6.6,13.8-14.4,3.9c-0.9-1.1-3.4-8.8-4.8-8.3c-2.4-2.5-4.2-5.4-0.6-8.2c5.6-4.4,1.2-15-2.1-17.9
				c-4.1-3.7-13.6-12.5-5.1-19.4c7.1-5.8,12.9-8.2,9.2-18.2c-3.7-10.1-0.6-18.6,9.1-21.9c10.2-3.5,13-19.4,23-18.6
				C115.9,6,112.3,33,97.7,46.5s-2.1,15.2,1.8,23.1c0.3,0.7,0.8,1.9,1,3.4c1.6,9.2-6.6,14.4-10,23.9C86,109.6,93.1,122.8,91.4,123.2
				z"/>
			<g>
				<g>
					<defs>
						<path id="SVGID_00000144334350372846731540000009307082315700943516_" d="M88.7,101.9l-21.8,8.9c-2.5-2.4-6.4-7.1-2.4-10.3
							c5.6-4.4,1.2-15-2.1-17.9c-4.1-3.7-13.6-12.5-5.1-19.4c7.1-5.8,12.9-8.2,9.2-18.2c-3.7-10.1-0.6-18.6,9.1-21.9
							c10.2-3.5,13-19.4,23-18.6c17.4,1.4,13.8,28.4-0.8,41.9s-2.1,15.2,1.8,23.1c5.4,10.7-11.4,14.9-13.7,21
							C84.1,95,86.8,99.4,88.7,101.9z"/>
					</defs>
					<clipPath id="SVGID_00000178201510981104176870000007414351711572279722_">
						<use xlink:href="#SVGID_00000144334350372846731540000009307082315700943516_"  style="overflow:visible;"/>
					</clipPath>
					<g style="opacity:0.5;clip-path:url(#SVGID_00000178201510981104176870000007414351711572279722_);">
						<path class="st6" d="M77.1,102.9l-0.5,0.1c-6.8-34.6,4.2-72.7,28.7-99.4l0.4,0.3C81.3,30.5,70.4,68.4,77.1,102.9z"/>
						<path class="st6" d="M75.1,83.7l-0.5,0.2c-5.5-12.7-21.3-17.9-21.5-18l0.2-0.5C53.5,65.5,69.6,70.7,75.1,83.7z"/>
						<path class="st6" d="M76,96.5h-0.5c1.7-14.1,26-25.9,26.2-26.1l0.2,0.4C101.7,70.9,77.7,82.7,76,96.5z"/>
						<path class="st6" d="M80.1,49.2h-0.5C79.9,38,67.2,26.2,67,26.1l0.4-0.4C67.5,25.8,80.4,37.8,80.1,49.2z"/>
						<path class="st6" d="M88.7,28l-0.4-0.3c8-10.5,25.8-13.8,26-13.9l0.1,0.5C114.2,14.4,96.6,17.7,88.7,28z"/>
					</g>
				</g>
			</g>
		</g>
	</g>
	<g>
		<g>
			<defs>
				<circle id="SVGID_00000024687175966233022880000001572500020705771671_" cx="120" cy="95.4" r="71.9"/>
			</defs>
			<clipPath id="SVGID_00000116944652868505301870000002872565589589723825_">
				<use xlink:href="#SVGID_00000024687175966233022880000001572500020705771671_"  style="overflow:visible;"/>
			</clipPath>
			<g style="clip-path:url(#SVGID_00000116944652868505301870000002872565589589723825_);">
				
					<linearGradient id="SVGID_00000005966923271675046060000007600594839022433183_" gradientUnits="userSpaceOnUse" x1="139.3158" y1="39.1582" x2="88.0139" y2="162.2826" gradientTransform="matrix(1 0 0 -1 0 180.6456)">
					<stop  offset="9.536998e-04" style="stop-color:#42D5A7"/>
					<stop  offset="0.999" style="stop-color:#00BB66"/>
				</linearGradient>
				<path style="fill:url(#SVGID_00000005966923271675046060000007600594839022433183_);" d="M192.8,95.4c0,15.4-4.8,29.7-13,41.5
					l-0.1,0.1l0,0c-12.9,18.9-34.9,31.1-59.7,31.1c-2,0-4-0.1-5.9-0.4l0,0v0.1c-1-0.1-1.9-0.1-2.9-0.2c-0.3,0-0.7-0.1-1-0.1
					s-0.6-0.1-0.9-0.1s-0.5-0.1-0.8-0.1c-0.1,0-0.1,0-0.2,0c-0.6-0.1-1.3-0.2-1.9-0.3l0,0c-33.6-6.4-59.1-36-59.1-71.5
					c0-7.5,1.1-14.8,3.2-21.6c0.3-1.1,0.7-2.1,1-3.2l0,0c0.8-1.7,1.4-3.5,2.1-5.1c0.3-0.7,0.6-1.3,1-2c1.8-3.6,3.8-7.1,6.2-10.4
					c0.2-0.3,0.4-0.6,0.6-0.9c0.9-1.2,1.8-2.3,2.7-3.4c1.4-1.7,2.9-3.3,4.4-4.8c4-4,8.5-7.6,13.3-10.6c1.5-0.9,3-1.8,4.6-2.6
					c3.8-2,7.8-3.6,12-4.9c6.8-2.1,14.1-3.3,21.6-3.3c17.3,0,33.3,6.1,45.8,16.2C175,46.3,182.5,56,187.2,67c1.1,2.5,1.8,5,2.9,7.6
					l0,0H190C191.9,81.1,192.8,88.2,192.8,95.4z"/>
				<g class="st11">
					<polygon class="st12" points="114,168 114,168 114,168 					"/>
					<path class="st12" d="M135.9,120c-1.6,2.2-6.4,5-3.1,10.6c3.3,5.5-0.2,6.6-2.5,6.1c-2.2-0.5-9.2-0.8-8.1,2.4
						c1.2,3.2,3.2,4.4,0.6,5.6c-2.6,1.2-3.6,4.4-6.3,8.8c-2.6,4.4-8.8,0.6-7,5s3.3,4,3.1,7.1c0,0.8,0.5,1.7,1.3,2.5
						c-1-0.1-2-0.2-2.9-0.3c-0.3,0-0.7-0.1-1-0.1s-0.6-0.1-0.9-0.1s-0.5-0.1-0.8-0.1c-0.1,0,0,0-0.1,0c-0.6-0.1-0.9-0.2-1.8-0.3l0,0
						c-0.5-0.5-0.2-1.1-0.1-1.7c0.8-5.7-7-9.6-8.3-13.6s0-6.3-0.3-9.6s0.8-7.6-1.1-10.4c-1.9-2.8-9.5-3.7-11-9.2
						c-1.5-5.6,1.9-13.9,3.3-15.3c1.3-1.4-6.3-7.9-9.9-8.1s-2.2-7.5-8.3-6.4c-6.2,1.1-17.2-2.4-14.9-6.1c1.9-3,5.1-9.8-5.3-12.8
						c0.3-1.1,0.7-2.1,1-3.2l0,0c0.8-1.7,1.4-3.5,2.1-5.1c0.3-0.7,0.6-1.3,1-2c1.8-3.6,3.9-7.1,6.2-10.4c0.2-0.3,0.4-0.6,0.6-0.9
						c0.9-1.2,1.8-2.3,2.7-3.4c1.4-1.7,2.9-3.3,4.4-4.8c4-4,8.5-7.6,13.3-10.6c2,1.4,4.4,2.3,6.4,1.2c5-2.8,1.7-3.2-0.3-3.3
						c-0.5,0-1-0.2-1.5-0.6c3.8-2,7.8-3.6,12-4.9c-0.3,2.8-4.1,7.3-1.3,6.7c3.3-0.6,4.6-9.4,7-6.5s-2.7,6.8,2.1,4.6
						c4.8-2.2,5.4-7.1,10.7-4.7c5.3,2.4,4.9,5.3,6.3,5c1.5-0.3,6.3,2.9,3.4,5.6c-2.9,2.7-5.6-0.7-10-1.8c-4.4-1-4.3,2.6-6.3,3.4
						c-2.1,0.8-12-4-14.4,0.3c-2.5,4.3-3.5,7.3,0.1,7.2c3.7-0.1,3.9-1,3.6,1.7s0.4,4.7,3.7,2.2c3.3-2.5,2.6-5,5.1-3.8
						c2.6,1.2,2.9,0.1,5.6-1.9s6.4-2.2,7.3,2.3s-0.7,5.5-5.5,5.7s-5.4-1.3-6.9,2.7s-7.9,9.2-13.5,11.4c-5.6,2.1-7.8,5.3-7.7,9.6
						c0.1,4.3-2,8.8-3.4,5.3s-5.4-9.5-9.4-5.5s-11.1,11-3.3,12.3s3.7-6,7.6-4.5s-2.5,4.7,0.1,5.8c2.6,1.2,3.7,0.6,3.7,4.2
						s0.9,7,4.1,5.5s7.3-8.5,11.9-4.4c4.6,4.2,4.3,3.6,6.7,2.4c2.4-1.2,4,2.4,4.9,4.1c1,1.6,4.9,0,8,4.9s4.4,5.8,8,4
						c3.6-1.8,5-0.5,6,2c0.9,2.5,3.1,0.1,4.2,3.3C137.9,118.3,137.4,117.8,135.9,120z"/>
					<g>
						<path class="st12" d="M148.1,60.5c-2.5-5.5,10.1-4.8,12.3-4.4c2.2,0.4,7.5-3.7,8.2-5.6c0.7-1.9,1.8-1,5.8-1.1
							c4,0,0.5-0.9-3.9-2.4c-4.4-1.4-0.6-1.6-4.7-4.8c-1.7-1.4-1.2-2.6,0-3.5c9.2,7.4,16.5,17.1,21.3,28.1c-0.1,0-0.3-0.1-0.4-0.1
							c-2.8,0-3.4-6.2-4.8-7.4c-1.4-1.2,0,3.4,0.4,5.3c0.3,1.9-0.8,0.3-2.2,2s-3.9,1.8-4.1-0.8c-0.2-2.6-2.1-5.1-5.8-6.3
							s-6.9-0.2-9.9,1C157.2,61.7,150.7,66,148.1,60.5z"/>
						<path class="st12" d="M179.8,137.1c0.3-1.9,0.7-3.8-0.1-4.5c-1.9-1.8-2.3-6.6-1.7-9c0.7-2.4,5.8-2.3,2.3-6.4
							s-6.6-8.9-5.2-11.7c1.5-2.8,1-3-1.7-2.9c-2.7,0-4,0.1-6.7-2.3c-2.7-2.5-6.5,5.8-16.8-0.8c-10.3-6.7-4.4-18.1-0.6-18.1
							c3.9-0.1,8.4-2,5.2-6.8s1.8-5.4,4.2-4.3s6.7-1.8,11.1-3.1c4.4-1.3,4.2,5.9,6.6,7.3c2.5,1.4,7.1,0.3,9.4-2
							c1.7-1.6,2.1,0.3,3.8,2.1c2,6.6,3.1,13.7,3.1,20.9C192.8,110.9,188,125.3,179.8,137.1z"/>
						<path class="st12" d="M161.3,51.5c0,0,3.2-1.5,2-3.8s-3-9.5-4.3-7.2s0.6,6.7,0.2,8.6C158.8,50.9,158.8,51.9,161.3,51.5z"/>
						<path class="st12" d="M158.1,49.3c0-0.8,0.4-3.8-2-3.7c0,0-3.5,1.4-1.4,3.9C156.8,51.9,158.2,50,158.1,49.3z"/>
					</g>
				</g>
			</g>
		</g>
		<g>
			<defs>
				<circle id="SVGID_00000169534625557730092740000003409830827966208178_" cx="120" cy="95.4" r="71.9"/>
			</defs>
			<clipPath id="SVGID_00000168095487997939241450000012330928308498084757_">
				<use xlink:href="#SVGID_00000169534625557730092740000003409830827966208178_"  style="overflow:visible;"/>
			</clipPath>
			
				<linearGradient id="SVGID_00000149371950200668844970000003969811780640871101_" gradientUnits="userSpaceOnUse" x1="47.5" y1="85.2957" x2="192.6" y2="85.2957" gradientTransform="matrix(1 0 0 -1 0 180.6456)">
				<stop  offset="0" style="stop-color:#24ABB5"/>
				<stop  offset="1" style="stop-color:#40CF9F"/>
			</linearGradient>
			
				<path style="opacity:0.3;clip-path:url(#SVGID_00000168095487997939241450000012330928308498084757_);fill:url(#SVGID_00000149371950200668844970000003969811780640871101_);enable-background:new    ;" d="
				M192.6,95.3c0,15.4-4.7,29.7-12.9,41.5l-0.1,0.1l0,0c-13.1,18.9-35,31-59.8,31c-2,0-4.1-0.2-6-0.4l0,0v0.2
				c-1-0.1-1.9-0.1-2.9-0.2c-0.3,0-0.7,0-1-0.1c-0.3,0-0.6-0.1-0.9-0.1s-0.5-0.1-0.8-0.1c-0.1,0-0.1,0-0.2,0
				c-0.6-0.1-1.3-0.2-1.9-0.3l0,0C75,161,50.9,135.2,47.5,103.3c7.3,20.9,25.3,36.7,47.5,41l0,0c0.5,0.3,1.1,0.2,1.6,0.3
				c0.1,0,0.1,0,0.2,0c0.2,0,0.4,0.1,0.7,0.1c0.3,0,0.5,0.1,0.8,0.1s0.6,0.1,0.9,0.1c0.8,0.1,1.7,0.3,2.5,0.4v0.1l0,0
				c1.7,0,3.4,0.1,5.2,0.1c10.7,0,20.8-2.7,29.6-7.4s16.4-11.4,22-19.6l0.1-0.1c7.1-10.2,11.2-22.5,11.2-35.8
				c0-6.3-0.9-12.4-2.6-18.1l0,0l0,0c-0.5-2.2-1.4-4.4-2.3-6.6c-4.1-9.5-10.4-17.8-18.3-24.3c-5.8-4.7-12.5-8.4-19.7-10.8
				c14.7,1.4,28.1,7.1,39,15.9c9.2,7.4,16.6,17.1,21.3,28.1c1.1,2.5,1.7,5,2.8,7.6l0,0h-0.1C191.6,81,192.6,88,192.6,95.3z"/>
		</g>
	</g>
	<g>
		<path class="st12" d="M129.5,45.6c-14.2-7-32.4,4.7-39.5,17.6c-1.9,3.5-3,6.9-3.5,9.8c-3,5.6-4.5,10.5-4.6,11
			c-0.2,0.7,0.2,1.4,0.9,1.6h0.1c0.7,0.1,1.3-0.2,1.5-0.9c0.1-0.2,6.9-22.2,19.6-26c12.7-3.7,27.4,7.4,27.6,7.5
			c0,0-25.8-17.6-37.4,5.3c1.4-0.6,2.8-1.1,4.4-1.4c9.1-1.4,14.1,6.2,25.1,7.3c4.7,0.5,11.6-0.1,20.3-5.4
			C143.5,60.5,138.3,49.9,129.5,45.6z"/>
		<path class="st12" d="M164.6,135.5c11.9-10.6,7.8-31.8-1.4-43.2c-2.5-3.1-5.2-5.3-7.8-7c-4.1-4.9-8.1-8.1-8.4-8.4
			c-0.6-0.5-1.4-0.4-1.8,0.2c0,0,0,0.1-0.1,0.1c-0.4,0.6-0.3,1.3,0.3,1.8c0.2,0.1,18,14.8,16.7,27.9s-17.1,22.6-17.3,22.7
			c0,0,26-17.3,9.1-36.7c0.1,1.5,0,3-0.4,4.6c-2.1,8.9-11.1,10.8-16.2,20.5c-2.2,4.2-4.2,10.8-2.6,20.9
			C145.4,142.9,157.2,142,164.6,135.5z"/>
		<path class="st12" d="M68.2,118.2c1.2,15.8,20.5,25.5,35.2,25.2c3.9-0.1,7.4-0.9,10.3-2c6.3-0.3,11.4-1.5,11.8-1.6
			c0.7-0.2,1.1-0.9,1-1.6v-0.1c-0.2-0.6-0.9-1-1.5-0.9c-0.2,0.1-22.7,5.3-32.3-3.7c-9.7-9-7.5-27.4-7.5-27.6c0,0-2.1,31.2,23.6,29.5
			c-1.2-0.8-2.4-1.9-3.4-3.1c-5.8-7.1-1.8-15.3-6.4-25.3c-2-4.3-6-9.9-15-14.8C73.9,98.5,67.5,108.3,68.2,118.2z"/>
	</g>
	<g>
		
			<linearGradient id="SVGID_00000142147700895444303380000003395236499680293505_" gradientUnits="userSpaceOnUse" x1="166.225" y1="22.1289" x2="167.665" y2="-3.7919" gradientTransform="matrix(1 0 0 -1 0 180.6456)">
			<stop  offset="0" style="stop-color:#444B8C"/>
			<stop  offset="0.9964" style="stop-color:#26264F"/>
		</linearGradient>
		<path style="fill:url(#SVGID_00000142147700895444303380000003395236499680293505_);" d="M169.8,167.7c0,0,0.2,1.4,0.1,1.9
			c-0.1,0.5-4.3,0.8-5.7,0.7c-1.4-0.2,0.8-1.6,1.7-1.9C166.8,168.2,169.8,167.7,169.8,167.7z"/>
		
			<linearGradient id="SVGID_00000009553277763913085340000006279587809507734928_" gradientUnits="userSpaceOnUse" x1="167.707" y1="13.8346" x2="169.8634" y2="13.8346" gradientTransform="matrix(1 0 0 -1 0 180.6456)">
			<stop  offset="0" style="stop-color:#311944"/>
			<stop  offset="1" style="stop-color:#A03976"/>
		</linearGradient>
		<path style="fill:url(#SVGID_00000009553277763913085340000006279587809507734928_);" d="M167.7,165.3l0.4,2.9c0,0,1.1,0.5,1.7,0
			l0.1-3L167.7,165.3z"/>
		
			<linearGradient id="SVGID_00000069379446942070801460000009890006869203593865_" gradientUnits="userSpaceOnUse" x1="192.3315" y1="23.579" x2="193.7715" y2="-2.341" gradientTransform="matrix(1 0 0 -1 0 180.6456)">
			<stop  offset="0" style="stop-color:#444B8C"/>
			<stop  offset="0.9964" style="stop-color:#26264F"/>
		</linearGradient>
		<path style="fill:url(#SVGID_00000069379446942070801460000009890006869203593865_);" d="M191.2,165.2c0,0-0.9,0.7-0.6,1.4
			c0.2,0.8,2.3,3.9,3.8,4.8c1.5,0.9,1-1,0.6-2.1c-0.4-1.2-1.5-3.7-1.9-4.1C192.5,164.8,191.2,165.2,191.2,165.2z"/>
		
			<linearGradient id="SVGID_00000100367398683690170060000004299701164259952792_" gradientUnits="userSpaceOnUse" x1="189.6" y1="15.0918" x2="193.8885" y2="15.0918" gradientTransform="matrix(1 0 0 -1 0 180.6456)">
			<stop  offset="0" style="stop-color:#311944"/>
			<stop  offset="1" style="stop-color:#A03976"/>
		</linearGradient>
		<path style="fill:url(#SVGID_00000100367398683690170060000004299701164259952792_);" d="M189.6,162.1c0.4,1.2,0.8,2.2,1.2,2.9
			c0.7,1.6,1.1,2.2,1.5,2.7s1.3,1.4,1.5,1.3c0.2-0.2-0.4-1.3-1.7-4.8c-0.2-0.5-0.8-2.1-0.8-2.1l0,0L189.6,162.1L189.6,162.1z"/>
		
			<linearGradient id="SVGID_00000002344857727986540740000013306648433890477214_" gradientUnits="userSpaceOnUse" x1="166.5604" y1="16.4123" x2="165.8404" y2="44.2525" gradientTransform="matrix(1 0 0 -1 0 180.6456)">
			<stop  offset="0" style="stop-color:#311944"/>
			<stop  offset="1" style="stop-color:#893976"/>
		</linearGradient>
		<path style="fill:url(#SVGID_00000002344857727986540740000013306648433890477214_);" d="M159,112.3c-0.3,3-0.6,7.6-0.2,13.3
			c0.6,7.3,2,12,3.9,19.8c1.1,4.8,2.6,11.8,4,20.6c0.3,0.2,1.3,0.7,2.5,0.5c0.7-0.1,1.2-0.4,1.5-0.6c3.6-11,2.5-17.8,0.8-22.1
			c-0.7-1.8-1.6-3.2-2.1-6c-0.6-3.7,0.2-5.7,1.3-14.3c0.8-6.1,0.7-7,0.1-7.9C168.6,112,162.1,112.1,159,112.3z"/>
		
			<linearGradient id="SVGID_00000173119092033783096410000009489588266886935473_" gradientUnits="userSpaceOnUse" x1="182.5535" y1="16.826" x2="181.8335" y2="44.6662" gradientTransform="matrix(1 0 0 -1 0 180.6456)">
			<stop  offset="0" style="stop-color:#311944"/>
			<stop  offset="1" style="stop-color:#893976"/>
		</linearGradient>
		<path style="fill:url(#SVGID_00000173119092033783096410000009489588266886935473_);" d="M171.4,113.6c2.2,11.4,4.4,17.4,6,20.8
			c0.4,0.8,1.8,3.5,3,7.4c1.1,3.4,1.6,5.9,1.8,7c0.8,3.5,2.6,8.6,7.7,15.3c0.1,0,0.9,0.5,1.8,0.1c0.4-0.2,0.6-0.6,0.7-0.7
			c-0.7-6.4-1.4-11.8-2.1-15.9c-0.1-0.9-0.7-4.7-1.7-9.7c-0.4-2-0.9-4.9-1.6-7.8c-0.8-3.7-2.1-8.7-4-14.7
			C179.2,114.7,175.3,114.1,171.4,113.6z"/>
		
			<linearGradient id="SVGID_00000085226403586572256210000006476297323070292109_" gradientUnits="userSpaceOnUse" x1="164.4729" y1="103.452" x2="197.386" y2="103.452" gradientTransform="matrix(1 0 0 -1 0 180.6456)">
			<stop  offset="0" style="stop-color:#311944"/>
			<stop  offset="1" style="stop-color:#6B3976"/>
		</linearGradient>
		<path style="fill:url(#SVGID_00000085226403586572256210000006476297323070292109_);" d="M171,77.5c-3.2-2.6-6-4.6-6.4-8.2
			c-0.3-2.8,0.9-6.2,3.2-7.1c1.9-0.8,3.5,0.5,7.2,1.8c6.9,2.5,8.4,0.5,12.8,2.4c3.8,1.6,9.5,6.2,9.6,12.9c0.1,6.3-4.7,12.7-9.6,13.1
			C183.2,92.9,183.3,87.7,171,77.5z"/>
		
			<linearGradient id="SVGID_00000075849869252587904710000014868121432698450329_" gradientUnits="userSpaceOnUse" x1="157.1084" y1="105.5616" x2="177.2447" y2="69.5464" gradientTransform="matrix(1 0 0 -1 0 180.6456)">
			<stop  offset="0" style="stop-color:#FFC444"/>
			<stop  offset="0.9964" style="stop-color:#F36F56"/>
		</linearGradient>
		<path style="fill:url(#SVGID_00000075849869252587904710000014868121432698450329_);" d="M156.2,115.4c-2.8-4.4,2.7-7.4,0.9-17.8
			c-1-5.8-3.8-10.9-1.7-16.8c0.5-1.4,1-2.2,1.5-2.8c0.7-0.8,3-3.2,11.5-3.3c7-0.1,10.5-0.1,12.6,1.8c4.3,3.9,0,9.9,2.2,24.3
			c1.3,8.5,3.3,10.1,1.8,13.1C181.1,121.8,160.9,122.8,156.2,115.4z"/>
		
			<linearGradient id="SVGID_00000007418602634904862400000006864066460590230162_" gradientUnits="userSpaceOnUse" x1="154.6778" y1="79.5221" x2="182.8948" y2="79.5221" gradientTransform="matrix(1 0 0 -1 0 180.6456)">
			<stop  offset="0" style="stop-color:#FFC444"/>
			<stop  offset="0.9964" style="stop-color:#F36F56"/>
		</linearGradient>
		<path style="opacity:0.3;fill:url(#SVGID_00000007418602634904862400000006864066460590230162_);enable-background:new    ;" d="
			M172.9,106.6c-3.5-6.4-2.6-12.1-8.1-16.1c-3.5-2.6-6.2-2-8.3-4.9c-0.8-1.1-1.3-2.4-1.5-3.7c-1.4,5.5,1.1,10.3,2,15.7
			c1.8,10.4-3.7,13.4-0.9,17.8c4.1,6.4,20.1,6.4,26.7,1.1C177.5,113.3,174.6,109.7,172.9,106.6z"/>
		
			<linearGradient id="SVGID_00000154409040922735496040000008244335875336872614_" gradientUnits="userSpaceOnUse" x1="-3159.4744" y1="-612.7492" x2="-3161.7117" y2="-618.7148" gradientTransform="matrix(0.8996 0.4368 0.4368 -0.8996 3284.5862 899.0444)">
			<stop  offset="0" style="stop-color:#311944"/>
			<stop  offset="1" style="stop-color:#A03976"/>
		</linearGradient>
		<path style="fill:url(#SVGID_00000154409040922735496040000008244335875336872614_);" d="M169.2,67.5c0,0,1,4.9,2.9,5.9
			s5,2.2,5.3,2.6c0.4,0.4-11.2,2.5-17.2,0.1l0,0c1.9-0.5,2.4-0.7,2.4-0.7c0.5-0.2,1.4-0.5,2.4-1.2c0.6-0.4,1.6-1.2,2.5-2.7l-0.2-2.7
			L169.2,67.5z"/>
		
			<linearGradient id="SVGID_00000033333223800239416620000009472034943374885016_" gradientUnits="userSpaceOnUse" x1="-3160.3042" y1="-605.1635" x2="-3167.8677" y2="-614.538" gradientTransform="matrix(0.8996 0.4368 0.4368 -0.8996 3284.5862 899.0444)">
			<stop  offset="0" style="stop-color:#311944"/>
			<stop  offset="1" style="stop-color:#A03976"/>
		</linearGradient>
		<path style="fill:url(#SVGID_00000033333223800239416620000009472034943374885016_);" d="M169.6,69.2c0,0-1.1,1.7-3,1.2
			c-1.7-0.5-1.1-4.9,0.2-5.5c0.4-0.2,1.2-0.2,1.8,0.1c0.4,0.2,1.5,1.4,1,2.9c0.4-0.2,0.8-0.1,0.9,0.1c0.1,0.3-0.2,0.6-0.3,0.7
			C170.1,69.1,169.7,69.2,169.6,69.2z"/>
		
			<linearGradient id="SVGID_00000105395172365219007750000006936415244388537496_" gradientUnits="userSpaceOnUse" x1="168.2571" y1="95.1617" x2="140.2965" y2="82.8498" gradientTransform="matrix(1 0 0 -1 0 180.6456)">
			<stop  offset="0" style="stop-color:#FFC444"/>
			<stop  offset="0.9964" style="stop-color:#F36F56"/>
		</linearGradient>
		<path style="fill:url(#SVGID_00000105395172365219007750000006936415244388537496_);" d="M160.7,76.2c-2.2-1.4-7.7,3.7-8.5,4.4
			c-3.8,3.6-10.6,12.4-7.1,18.3c2.7,4.6,9.8,4.5,10.6,4.5c9-0.2,14-8.7,14.3-9.3c-0.3-0.5-0.6-1-0.9-1.6
			c-11.6,1.8-14.3,1.3-14.5,0.5s1.9-1.6,3.9-4.1C162.1,84.5,162.8,77.5,160.7,76.2z"/>
		
			<linearGradient id="SVGID_00000116944387979612982880000011175187361843948463_" gradientUnits="userSpaceOnUse" x1="173.5" y1="91.7749" x2="190.9442" y2="91.7749" gradientTransform="matrix(1 0 0 -1 0 180.6456)">
			<stop  offset="0" style="stop-color:#FFC444"/>
			<stop  offset="0.9964" style="stop-color:#F36F56"/>
		</linearGradient>
		<path style="fill:url(#SVGID_00000116944387979612982880000011175187361843948463_);" d="M173.5,87.2c0.4-0.4,0.8-0.8,1.2-1.2
			c2.3,1.7,4.7,3.2,5.8,2.5c2.2-1.6-3.4-11.4-1.6-12.6c1.1-0.7,4.5,2.1,6.8,5.2c5.5,7.3,6.8,18.5,3.3,20.5c-3.1,1.8-9.2-3.9-9.9-4.5
			C175.3,93.5,174,89.2,173.5,87.2z"/>
		<path class="st27" d="M164.5,111.4c-0.1,0-0.2,0-0.2,0c-0.4-0.1-0.5-0.5-0.4-0.9l14.8-42.1c0.1-0.4,0.5-0.5,0.9-0.4
			s0.5,0.5,0.4,0.9L165.1,111C165,111.2,164.8,111.4,164.5,111.4z"/>
		
			<linearGradient id="SVGID_00000086676881443429071650000010566544357605174661_" gradientUnits="userSpaceOnUse" x1="177.2696" y1="77.9585" x2="173.9328" y2="91.5361" gradientTransform="matrix(1 0 0 -1 0 180.6456)">
			<stop  offset="0" style="stop-color:#311944"/>
			<stop  offset="1" style="stop-color:#A03976"/>
		</linearGradient>
		<path style="fill:url(#SVGID_00000086676881443429071650000010566544357605174661_);" d="M174.6,86c0,0,0.4-3.1-1.2-3.8
			c-1.6-0.7-2.1,1.8-2.4,2.3c-0.3,0.5,1.4,1.5,1.4,1.5l1,1.2L174.6,86z"/>
		
			<linearGradient id="SVGID_00000165198230547282439410000007358655462463994771_" gradientUnits="userSpaceOnUse" x1="174.3404" y1="77.2387" x2="171.0036" y2="90.8163" gradientTransform="matrix(1 0 0 -1 0 180.6456)">
			<stop  offset="0" style="stop-color:#311944"/>
			<stop  offset="1" style="stop-color:#A03976"/>
		</linearGradient>
		<path style="fill:url(#SVGID_00000165198230547282439410000007358655462463994771_);" d="M169.1,92.6c0,0,0-1.4,0.9-2.9
			c0.8-1.6,2-0.6,3.2-0.1s0,3-0.9,3c-0.8,0-0.8,0-0.8,0l-1.5,1.6L169.1,92.6z"/>
		<g>
			
				<linearGradient id="SVGID_00000136382992149442144580000004335869551652557992_" gradientUnits="userSpaceOnUse" x1="170.8477" y1="124.8457" x2="199.3399" y2="124.8457" gradientTransform="matrix(1 0 0 -1 0 180.6456)">
				<stop  offset="2.103365e-03" style="stop-color:#F58152"/>
				<stop  offset="1" style="stop-color:#F9423A"/>
			</linearGradient>
			<circle style="fill:url(#SVGID_00000136382992149442144580000004335869551652557992_);" cx="185.1" cy="55.8" r="14.2"/>
			<circle class="st31" cx="185.1" cy="55.8" r="13.2"/>
			<path class="st12" d="M185.8,61.7l-0.8,1.9c-0.1,0.3-0.4,0.4-0.7,0.3l-7.3-3c-0.3-0.1-0.4-0.4-0.3-0.7l0.8-1.9
				c0.1-0.3,0.4-0.4,0.7-0.3l7.3,3C185.8,61.1,185.9,61.5,185.8,61.7z"/>
			<path class="st12" d="M188.8,58l-1.5,1.5c-0.2,0.2-0.5,0.2-0.8,0l-7.2-7.2c-0.2-0.2-0.2-0.5,0-0.8l1.5-1.5c0.2-0.2,0.5-0.2,0.8,0
				l7.2,7.2C189,57.4,189,57.8,188.8,58z"/>
			<path class="st12" d="M193,55.6l-1.9,0.8c-0.3,0.1-0.6,0-0.7-0.3l-3-7.3c-0.1-0.3,0-0.6,0.3-0.7l1.9-0.8c0.3-0.1,0.6,0,0.7,0.3
				l3,7.3C193.5,55.2,193.3,55.5,193,55.6z"/>
			
				<linearGradient id="SVGID_00000177485409267771318330000017996466184993198723_" gradientUnits="userSpaceOnUse" x1="170.8476" y1="124.5957" x2="194.2133" y2="124.5957" gradientTransform="matrix(1 0 0 -1 0 180.6456)">
				<stop  offset="5.517583e-03" style="stop-color:#ED6E4F;stop-opacity:0.3"/>
				<stop  offset="1" style="stop-color:#F9433A"/>
			</linearGradient>
			<path style="opacity:0.3;fill:url(#SVGID_00000177485409267771318330000017996466184993198723_);enable-background:new    ;" d="
				M182.4,60.9c-1.7-4.5,3.9-8.8,2.5-14.4c-0.5-1.8-1.5-3.3-2.9-4.5c-6.4,1.4-11.1,7.1-11.1,13.9c0,7.9,6.4,14.2,14.2,14.2
				c3.5,0,6.6-1.2,9.1-3.3C186.1,65.7,183.2,63.2,182.4,60.9z"/>
		</g>
	</g>
</g>
</svg>
